<svg xmlns="http://www.w3.org/2000/svg" width="412" height="103" fill="none"><g fill="#fff" clip-path="url(#a)"><path d="M24.232 50.294H11.995L0 .106h8.775l9.58 41.916L29.09.106h8.614l10.734 41.916L58.017.106h8.776L54.797 50.294H42.561l-9.178-37.038-9.178 37.038h.027ZM78.224 50.294c-7.674 0-11.834-4.958-11.834-11.082 0-6.125 4.16-11.082 11.834-11.082h13.713v-2.413c0-3.34-1.637-5.117-5.179-5.117h-17.55l3.515-7.052h14.035c8.856 0 13.498 4.348 13.498 12.169v24.55H78.224v.027Zm.698-15.404c-2.737 0-3.998 2.015-3.998 4.269 0 2.253 1.341 4.189 3.918 4.189h13.095V34.89H78.922ZM105.086 50.294l3.596-6.893h14.974c2.496 0 3.918-1.167 3.918-3.42 0-1.485-.939-2.625-2.817-3.102l-11.298-3.023c-5.26-1.405-8.077-5.037-8.077-9.836 0-6.124 3.998-10.446 10.653-10.446h17.55l-3.461 6.734H117.27c-2.281 0-3.596 1.087-3.596 3.34 0 1.618.939 2.785 2.737 3.262l11.915 3.181c4.32 1.167 7.46 4.72 7.46 9.677 0 6.363-4.079 10.526-11.137 10.526H105.06h.026ZM165.6 50.294V27.069c0-4.269-1.637-6.204-6.038-6.204h-10.037v29.429h-8.479V.106h8.479v13.468h11.298c8.614 0 13.257 4.56 13.257 12.938v23.782h-8.48ZM203.84.106h16.45l-3.918 7.662h-10.815c-10.814 0-16.477 6.336-16.477 17.418 0 11.083 5.636 17.42 16.477 17.42h14.733l-3.918 7.661H203.84c-13.176-.159-23.749-9.067-23.749-25.107S190.664.265 203.84.106ZM241.221 12.567c12.317 0 19.295 7.9 19.295 19.354 0 11.453-6.978 19.354-19.295 19.354-12.317 0-19.294-7.9-19.294-19.354 0-11.453 6.977-19.354 19.294-19.354Zm0 31.364c7.138 0 10.815-4.56 10.815-12.01s-3.677-11.93-10.815-11.93-10.814 4.506-10.814 11.93c0 7.423 3.676 12.01 10.814 12.01ZM304.311 50.294V25.982c0-3.261-1.503-5.197-4.777-5.197h-6.36v29.509h-8.319V20.786h-10.653v29.508h-8.48v-36.72h34.885c7.38 0 12.076 4.72 12.076 12.17v24.55h-8.399.027ZM320.036 50.294V.106h8.48v13.468h7.218c10.198 0 18.034 6.575 18.034 18.347 0 11.771-7.836 18.346-18.034 18.346h-15.671l-.027.027Zm8.48-7.132h6.199c6.816 0 10.439-4.48 10.439-11.241 0-6.761-3.462-11.242-10.439-11.242h-6.199v22.483ZM376.148 12.567c12.318 0 19.295 7.9 19.295 19.354 0 11.453-6.977 19.354-19.295 19.354-12.317 0-19.294-7.9-19.294-19.354 0-11.453 6.977-19.354 19.294-19.354Zm0 31.364c7.138 0 10.815-4.56 10.815-12.01s-3.677-11.93-10.815-11.93-10.814 4.506-10.814 11.93c0 7.423 3.676 12.01 10.814 12.01ZM400.3 0v1.3h-3.14v8.828h-1.61V1.299h-3.14V0h7.89ZM412 0v10.128h-1.61V1.273h-.134l-2.442 8.855h-2.174l-2.496-8.855h-.134v8.855h-1.61V0h2.925l2.388 8.882h.135L409.182 0H412ZM206.148 102.443l-3.247-9.412h-14.035l-3.247 9.412h-5.85l12.478-34.094h7.568l12.344 34.094h-6.011Zm-10.466-29.826-5.34 16.04h11.056l-5.287-16.04h-.429ZM223.027 102.576s-.242.053-.537.053c-.053.053-.161.079-.268.079h-.778c-1.208 0-2.228-.159-3.06-.477-.831-.318-1.476-.769-1.985-1.378-.483-.584-.832-1.326-1.047-2.2-.215-.876-.322-1.883-.322-2.997v-28.42l5.34-.664V95.55c0 .716.054 1.3.134 1.723.108.425.242.743.457.955.214.212.483.371.805.45.322.08.724.107 1.207.107v3.764l.054.027ZM234.459 102.576s-.242.053-.537.053c-.054.053-.161.079-.268.079h-.779c-1.207 0-2.227-.159-3.059-.477-.832-.318-1.476-.769-1.986-1.378-.483-.584-.831-1.326-1.046-2.2-.215-.876-.322-1.883-.322-2.997v-28.42l5.34-.664V95.55c0 .716.054 1.3.134 1.723.108.425.242.743.456.955.215.212.483.371.805.45.322.08.725.107 1.208.107v3.764l.054.027ZM251.741 88.79h-13.579v-4.455h13.579v4.455ZM257.617 68.72h5.421v4.745h-5.421V68.72Zm.054 10.021h5.34v23.702h-5.34V78.741ZM273.182 78.742l.188 1.882c.456-.318.912-.583 1.395-.849.483-.238 1.02-.477 1.583-.662 1.852-.637 3.543-.955 5.153-.955 1.61 0 2.898.186 3.891.584 1.019.397 1.825.954 2.415 1.696.59.743.993 1.644 1.207 2.731.215 1.087.323 2.307.323 3.685v15.563h-5.341v-14.45c0-.821-.053-1.564-.134-2.253-.107-.69-.295-1.272-.563-1.776a2.902 2.902 0 0 0-1.235-1.167c-.537-.291-1.261-.424-2.147-.424-1.019 0-1.932.133-2.79.398-.832.265-1.584.61-2.201 1.06l-.966.61v18.028h-5.34V85.025l-.43-6.31h4.965l.027.026ZM308.551 88.79h-13.579v-4.455h13.579v4.455ZM313.703 85.21c0-5.938 1.261-10.313 3.81-13.15 2.55-2.837 6.495-4.242 11.862-4.242 2.683 0 4.964.398 6.843 1.22 1.851.822 3.354 1.988 4.508 3.526 1.127 1.538 1.959 3.394 2.469 5.568.51 2.174.751 4.64.751 7.396 0 5.94-1.288 10.314-3.837 13.177-2.55 2.863-6.521 4.269-11.915 4.269-2.737 0-5.018-.398-6.87-1.22-1.852-.822-3.327-1.988-4.455-3.526-1.127-1.538-1.932-3.394-2.415-5.594-.483-2.2-.724-4.666-.724-7.424h-.027Zm24.527-.344c0-1.777-.134-3.447-.375-5.011-.242-1.564-.725-2.916-1.369-4.083a7.472 7.472 0 0 0-2.71-2.757c-1.128-.663-2.577-1.008-4.348-1.008-1.905 0-3.488.292-4.776.902a7.207 7.207 0 0 0-3.086 2.624c-.779 1.167-1.342 2.599-1.691 4.322-.349 1.723-.537 3.685-.537 5.912 0 1.776.134 3.447.403 5.038.268 1.59.724 2.916 1.395 4.082a7.755 7.755 0 0 0 2.657 2.758c1.1.662 2.522 1.007 4.24 1.007 1.959 0 3.623-.292 4.938-.901 1.314-.584 2.361-1.459 3.139-2.625.778-1.167 1.315-2.598 1.637-4.295.322-1.697.483-3.685.483-5.939v-.026ZM353.338 78.742l.188 1.882c.456-.318.913-.583 1.396-.849a12.24 12.24 0 0 1 1.583-.662c1.852-.637 3.542-.955 5.152-.955 1.61 0 2.898.186 3.891.584 1.02.397 1.825.954 2.416 1.696.59.743.992 1.644 1.207 2.731.215 1.087.322 2.307.322 3.685v15.563h-5.34v-14.45c0-.821-.054-1.564-.134-2.253-.108-.69-.295-1.272-.564-1.776a2.894 2.894 0 0 0-1.234-1.167c-.537-.291-1.261-.424-2.147-.424-1.02 0-1.932.133-2.791.398-.832.265-1.583.61-2.2 1.06l-.966.61v18.028h-5.341V85.025l-.429-6.31h4.965l.026.026ZM385.38 103c-2.201 0-4.026-.265-5.502-.769-1.476-.53-2.656-1.299-3.569-2.36-.912-1.06-1.556-2.359-1.932-3.923-.376-1.564-.563-3.394-.563-5.515 0-8.192 3.81-12.275 11.431-12.275 2.067 0 3.757.292 5.072.875s2.362 1.379 3.086 2.413c.725 1.034 1.261 2.253 1.557 3.685.295 1.432.429 2.97.429 4.64v2.12h-16.047c.053 2.387.509 4.11 1.341 5.17 1.074 1.352 2.925 2.015 5.528 2.015 1.798 0 3.301-.212 4.509-.662 1.207-.451 2.254-.849 3.166-1.273l1.154 3.394a11.26 11.26 0 0 1-1.717.874c-.698.292-1.476.557-2.335.796-.859.238-1.771.424-2.737.557-.966.132-1.905.212-2.818.212l-.053.026Zm4.427-14.767c0-2.254-.375-3.897-1.127-4.905-.751-1.007-1.932-1.538-3.515-1.538-1.771 0-3.086.398-3.918 1.193-.832.796-1.395 2.042-1.637 3.686l-.188 1.564h10.412-.027Z"/></g><defs><clipPath id="a"><path fill="#fff" d="M0 0h412v103H0z"/></clipPath></defs></svg>