<svg xmlns="http://www.w3.org/2000/svg" width="95" height="95" fill="none"><circle cx="47.375" cy="47.375" r="47.375" fill="#FD312E"/><path fill="#fff" d="M41.3 62.2v-3.14h4.33v-4.37h3.12v4.37h4.33v3.14h-4.33v4.37h-3.12V62.2H41.3Zm23.24-16.46V34.82h11.01c.59 0 1.07-.48 1.07-1.07V21.07c0-.59-.48-1.07-1.07-1.07H55.22c-.58 0-1.05.46-1.07 1.04 0 .3-.31 7.38-6.96 7.38s-7.36-7.13-7.38-7.43a1.07 1.07 0 0 0-1.07-.99H19.07c-.59 0-1.07.48-1.07 1.07v13.4c0 .59.48 1.07 1.07 1.07h10.47v10.19a1.071 1.071 0 0 0 2.14 0V34.47c0-.59-.48-1.07-1.07-1.07H20.14V22.14H37.8c.6 3.37 3.1 8.42 9.39 8.42 6.29 0 8.57-5.03 9.01-8.42h18.27v10.55H63.46c-.59 0-1.07.48-1.07 1.07v11.99a1.071 1.071 0 0 0 2.14 0l.01-.01Zm6.04 23.83c-1.4 0-3-.46-4.68-1.8-4.1-3.25-7.47-.35-7.62-.23a.804.804 0 0 1-1.07-1.2c.04-.04 4.51-3.95 9.69.17 4.09 3.26 7.41 0 7.55-.13.32-.31.82-.32 1.14 0 .32.31.32.82.01 1.13-.03.03-2.07 2.06-5.02 2.06Zm0-6.48c-1.4 0-3-.46-4.68-1.8-4.1-3.25-7.47-.35-7.62-.23a.804.804 0 0 1-1.07-1.2c.04-.04 4.51-3.95 9.69.17 4.09 3.26 7.41 0 7.55-.13.32-.32.82-.32 1.14 0 .32.31.32.82.01 1.13-.03.03-2.07 2.06-5.02 2.06Zm0-6.48c-1.4 0-3-.46-4.68-1.8-4.1-3.25-7.47-.35-7.62-.23-.33.29-.84.27-1.13-.07a.804.804 0 0 1 .06-1.13c.04-.04 4.51-3.95 9.69.17 4.09 3.26 7.41 0 7.55-.13.32-.31.82-.32 1.14 0 .32.31.32.82.01 1.13-.03.03-2.07 2.06-5.02 2.06ZM30.56 70.78c-3.28 0-6.6-2.33-6.6-6.78 0-1.83 3.24-8.72 5.17-12.66a1.6 1.6 0 0 1 1.45-.88c.63 0 1.2.33 1.46.86 0 0 4.41 8.36 5.19 12.1l.02.14c.07 2.05-.51 3.79-1.69 5.07l-.24.26c-1.22 1.2-2.96 1.88-4.75 1.88l-.01.01Zm.05-18.7c-3.73 7.52-5.04 11.13-5.04 11.93 0 3.55 2.59 5.17 4.99 5.17 1.26 0 2.47-.44 3.38-1.2l.25-.24c.99-.96 1.49-2.35 1.45-4.04-.77-3.52-4.98-11.54-5.02-11.61l-.01-.01Z"/></svg>