<svg xmlns="http://www.w3.org/2000/svg" viewBox="0 0 95 96" fill="none"><circle cx="47.375" cy="47.375" r="46.875" stroke="#FD312E"/><path fill="#FD312E" d="M66.131 31.615h-7.51v-13.74a1.87 1.87 0 1 0-3.738 0v13.74H39.12v-13.74a1.87 1.87 0 1 0-3.738 0v13.74H27.87c-1.032 0-1.869.84-1.869 1.874v16.973c0 7.474 7.54 13.7 17.423 14.929v10.735c0 1.034.837 1.874 1.869 1.874h3.416c1.032 0 1.87-.84 1.87-1.874V65.39C60.46 64.16 68 57.936 68 50.46V33.49a1.872 1.872 0 0 0-1.869-1.874Zm-1.869 18.847c0 6.285-7.745 11.402-17.262 11.402s-17.262-5.117-17.262-11.402V35.362h34.524v15.099Zm-27.355.044v-6.878l-1.723.821-.5-1.045 2.777-1.365h1.136v8.464h-1.693l.003.004Zm9.218 0h-6.19v-.903l3.095-3.077c.408-.398.684-.769.826-1.106.142-.337.217-.675.217-1.008 0-.203-.041-.379-.12-.529a1.14 1.14 0 0 0-.317-.375 1.394 1.394 0 0 0-.46-.228 1.875 1.875 0 0 0-.55-.075c-.388 0-.766.056-1.132.172a5.584 5.584 0 0 0-1.103.495l-.542-1.143a6.79 6.79 0 0 1 1.484-.619c.49-.135.972-.202 1.443-.202.434 0 .841.041 1.215.124.374.082.703.22.98.412.276.191.493.442.653.753.157.311.236.698.236 1.162 0 .278-.045.548-.13.806-.09.259-.206.51-.356.746s-.318.465-.512.682c-.195.218-.393.431-.598.634l-2.011 1.975h3.872v1.308-.003Zm4.082.14c-.575 0-1.069-.106-1.484-.316a2.757 2.757 0 0 1-1.028-.884c-.269-.379-.467-.84-.598-1.38a7.617 7.617 0 0 1-.194-1.795c0-.66.063-1.256.194-1.796s.33-.997.598-1.379c.27-.378.61-.674 1.028-.884.419-.21.912-.315 1.484-.315s1.066.105 1.477.315c.41.21.751.502 1.02.884.27.383.467.84.598 1.38.131.54.195 1.135.195 1.795 0 .66-.064 1.26-.195 1.795-.13.54-.329.997-.598 1.38-.269.382-.61.674-1.02.884-.411.21-.905.315-1.477.315Zm0-7.449c-.288 0-.534.072-.744.218a1.54 1.54 0 0 0-.512.618c-.13.27-.235.593-.299.975a7.715 7.715 0 0 0-.097 1.267c0 .937.13 1.683.396 2.241.266.559.684.836 1.256.836s.965-.277 1.23-.828c.265-.551.396-1.301.396-2.25 0-.948-.13-1.682-.396-2.24-.265-.56-.673-.837-1.23-.837Zm6.762 6.181 1.305-4.76h1.693l-2.011 5.889h-2.18l-1.958-5.889h1.776l1.248 4.76h.127Z"/></svg>