<svg width="95" height="96" viewBox="0 0 95 96" fill="none" xmlns="http://www.w3.org/2000/svg">
<circle cx="47.375" cy="48" r="46.875" stroke="#FD312E"/>
<path d="M29.3432 44.6184H27.3421L26.8085 45.9925H25.7412L27.8891 40.7896H28.7829L30.9307 45.9925H29.8635L29.3298 44.6184H29.3432ZM28.6628 42.8307L28.356 41.9769H28.3426L28.0358 42.8307L27.6756 43.8046H29.0364L28.6762 42.8307H28.6628Z" fill="#FD312E"/>
<path d="M34.4255 44.6317C34.4255 44.2582 34.2921 44.0981 33.425 43.8313C32.1443 43.4444 31.6507 42.9642 31.6507 42.1771C31.6507 41.2832 32.3044 40.7096 33.6784 40.7096C34.2654 40.7096 34.7857 40.883 35.2526 41.1498L34.9058 41.9103C34.5056 41.6701 34.1187 41.51 33.6784 41.51C32.9714 41.51 32.6779 41.7368 32.6779 42.1104C32.6779 42.4572 32.8647 42.6707 33.7852 42.9642C34.9058 43.3244 35.4528 43.6579 35.4528 44.5784C35.4528 45.4989 34.7857 46.0592 33.385 46.0592C32.6779 46.0592 32.0642 45.8858 31.5439 45.6056L31.8775 44.8452C32.3977 45.0987 32.878 45.2454 33.3583 45.2454C34.0653 45.2454 34.4255 45.0186 34.4255 44.6317Z" fill="#FD312E"/>
<path d="M39.2284 45.9925H38.2012V40.7896H41.5097V41.6167H39.2284V42.8574H41.3496V43.6845H39.2284V45.9791V45.9925Z" fill="#FD312E"/>
<path d="M45.2582 44.6184H43.2571L42.7235 45.9925H41.6562L43.8041 40.7896H44.6979L46.8458 45.9925H45.7785L45.2449 44.6184H45.2582ZM44.5779 42.8307L44.271 41.9769H44.2577L43.9508 42.8307L43.5906 43.8046H44.9514L44.5912 42.8307H44.5779Z" fill="#FD312E"/>
<path d="M50.3415 44.6317C50.3415 44.2582 50.2081 44.0981 49.341 43.8313C48.0603 43.4444 47.5667 42.9642 47.5667 42.1771C47.5667 41.2832 48.2204 40.7096 49.5945 40.7096C50.1815 40.7096 50.7017 40.883 51.1687 41.1498L50.8218 41.9103C50.4349 41.6701 50.0347 41.51 49.5945 41.51C48.8874 41.51 48.5939 41.7368 48.5939 42.1104C48.5939 42.4572 48.794 42.6707 49.7012 42.9642C50.8218 43.3244 51.3688 43.6579 51.3688 44.5784C51.3688 45.4989 50.7017 46.0592 49.301 46.0592C48.5939 46.0592 47.9802 45.8858 47.46 45.6056L47.7935 44.8452C48.3138 45.0987 48.794 45.2454 49.2743 45.2454C49.9813 45.2454 50.3415 45.0186 50.3415 44.6317Z" fill="#FD312E"/>
<path d="M55.9446 40.7896V41.6167H54.4638V45.9925H53.4365V41.6167H51.9424V40.7896H55.9446Z" fill="#FD312E"/>
<path d="M61.6938 44.6184H59.6927L59.159 45.9925H58.0918L60.2396 40.7896H61.1335L63.2813 45.9925H62.2141L61.6804 44.6184H61.6938ZM61.0134 42.8307L60.7066 41.9769H60.6932L60.3864 42.8307L60.0262 43.8046H61.3869L61.0267 42.8307H61.0134Z" fill="#FD312E"/>
<path d="M66.7771 44.6317C66.7771 44.2582 66.6437 44.0981 65.7765 43.8313C64.4958 43.4444 64.0022 42.9642 64.0022 42.1771C64.0022 41.2832 64.6559 40.7096 66.03 40.7096C66.617 40.7096 67.1373 40.883 67.6042 41.1498L67.2573 41.9103C66.8705 41.6701 66.4702 41.51 66.03 41.51C65.323 41.51 65.0295 41.7368 65.0295 42.1104C65.0295 42.4572 65.2296 42.6707 66.1367 42.9642C67.2573 43.3244 67.8043 43.6579 67.8043 44.5784C67.8043 45.4989 67.1373 46.0592 65.7365 46.0592C65.0295 46.0592 64.4158 45.8858 63.8955 45.6056L64.229 44.8452C64.7493 45.0987 65.2296 45.2454 65.7098 45.2454C66.4169 45.2454 66.7771 45.0186 66.7771 44.6317Z" fill="#FD312E"/>
<path d="M49.5411 35.2666C49.5411 35.7068 49.848 35.947 50.5017 35.947C50.8885 35.947 51.2087 35.8536 51.5289 35.6268L50.3149 34.2927C49.7279 34.5996 49.5278 34.8797 49.5278 35.2666H49.5411ZM58.0258 32.0115H57.3588V35.8002H58.0258C59.1597 35.8002 59.8401 35.2266 59.8401 33.9059C59.8401 32.5851 59.1597 32.0115 58.0258 32.0115ZM51.3821 32.3717C51.3821 32.0515 51.1554 31.8381 50.7551 31.8381C50.3816 31.8381 50.1548 32.0382 50.1548 32.3984C50.1548 32.7185 50.2882 32.9587 50.5684 33.2388C51.1687 32.9453 51.3821 32.6785 51.3821 32.3717ZM33.0788 32.3984H33.0654L32.7319 33.3055L32.3451 34.3461H33.7992L33.4123 33.3055L33.0788 32.3984ZM71.3664 29.2366H23.3268C22.433 29.2366 21.6992 30.0371 21.6992 31.0243V36.7874C21.6992 37.7746 22.433 38.5751 23.3268 38.5751H71.3664C72.2603 38.5751 72.994 37.7746 72.994 36.7874V31.0243C72.994 30.0371 72.2603 29.2366 71.3664 29.2366ZM28.1427 36.6807L27.2222 33.3722L27.0488 32.5851H27.0221L26.8354 33.3589L25.9149 36.6807H24.8476L23.2467 31.131H24.3407L25.1945 34.4528L25.3546 35.2266H25.3812L25.5547 34.4528L26.5018 31.1443H27.5558L28.5029 34.4662L28.6897 35.2399H28.7164L28.8765 34.4662L29.7303 31.1443H30.8242L29.2233 36.6941H28.1561L28.1427 36.6807ZM34.7063 36.6807L34.1327 35.2132H31.9982L31.4245 36.6807H30.2906L32.5852 31.131H33.5457L35.8403 36.6807H34.7063ZM37.9748 36.7741C37.2144 36.7741 36.574 36.5873 36.0137 36.2805L36.3739 35.4667C36.9342 35.7469 37.4412 35.8936 37.9615 35.8936C38.7219 35.8936 39.0954 35.6535 39.0954 35.2266C39.0954 34.8264 38.9487 34.6529 38.0148 34.3728C36.6541 33.9459 36.1205 33.4523 36.1205 32.5985C36.1205 31.6513 36.8275 31.0376 38.2816 31.0376C38.9086 31.0376 39.469 31.2244 39.9626 31.5045L39.589 32.3183C39.1621 32.0648 38.7486 31.8914 38.2816 31.8914C37.5212 31.8914 37.201 32.1316 37.201 32.5318C37.201 32.9053 37.4012 33.1321 38.3884 33.4389C39.589 33.8258 40.1627 34.186 40.1627 35.1599C40.1627 36.1337 39.4423 36.7341 37.9615 36.7341L37.9748 36.7741ZM45.6323 36.6807H44.5384V34.2127H42.1904V36.6807H41.0965V31.131H42.1904V33.3322H44.5384V31.131H45.6323V36.6807ZM52.5028 36.6807L52.1292 36.2672C51.6356 36.5873 51.062 36.7608 50.435 36.7608C49.2076 36.7608 48.5539 36.1337 48.5539 35.2933C48.5539 34.5595 49.0742 33.9592 49.7412 33.6257C49.341 33.1855 49.1409 32.7719 49.1409 32.3583C49.1409 31.5712 49.7412 31.0243 50.7418 31.0243C51.7423 31.0243 52.3827 31.6113 52.3827 32.2916C52.3827 32.972 51.9691 33.3989 51.1287 33.8525L52.1426 34.9598C52.3027 34.6529 52.396 34.3861 52.4894 34.0526H53.4099C53.2632 34.7063 53.0497 35.2399 52.7562 35.6268L53.6767 36.654H52.4894L52.5028 36.6807ZM58.0391 36.6807H56.2782V31.131H58.0391C59.8935 31.131 60.934 32.0515 60.934 33.9059C60.934 35.7602 59.9068 36.6807 58.0391 36.6807ZM65.0696 36.6807L63.9357 34.4928H62.9218V36.6807H61.8279V31.131H63.9757C65.3098 31.131 66.0035 31.6913 66.0035 32.8119C66.0035 33.5056 65.6166 34.0659 64.9896 34.3194L66.2169 36.6807H65.0563H65.0696ZM69.4854 34.3461V36.6807H68.3915V34.3328L66.3237 31.131H67.5644L68.9384 33.3589H68.9785L70.3392 31.131H71.5799L69.4987 34.3461H69.4854ZM63.9757 32.0115H62.9218V33.6124H63.9757C64.5494 33.6124 64.8829 33.3456 64.8829 32.8119C64.8829 32.2783 64.5494 32.0115 63.9757 32.0115Z" fill="#FD312E"/>
<path d="M23.1664 66.6572V64.1891L29.0096 57.7856C30.5838 56.0647 31.5844 55.1042 31.5844 53.4766C31.5844 52.0892 30.8106 51.5422 29.063 51.5422C27.1286 51.5422 26.3015 52.1559 26.2214 54.5172H22.6328C22.8463 51.1153 25.421 48.4072 29.063 48.4072C32.8918 48.4072 35.3064 50.5817 35.3064 53.4899C35.3064 55.5044 34.4259 56.7851 32.4382 58.9463L28.1025 63.6822H35.5199V66.6838H23.1531L23.1664 66.6572Z" fill="#FD312E"/>
<path d="M49.4342 58.7062V66.6572H45.979V58.7862C45.979 56.9719 45.2853 56.2648 43.3509 56.2648C41.4165 56.2648 40.7228 56.9852 40.7228 58.7862V66.6572H37.2676V48.7941H40.7228V54.7707C41.6833 53.7835 42.9774 53.2232 44.5783 53.2232C47.4999 53.2232 49.4476 55.4777 49.4476 58.7062H49.4342Z" fill="#FD312E"/>
<path d="M59.7994 53.2231V56.2515H58.3319C56.1574 56.2515 55.4103 56.8385 55.4103 58.7729V66.6438H51.9551V53.6234H55.0101L55.2235 55.0642C56.0773 53.8635 57.2647 53.2231 59.2657 53.2231H59.7994Z" fill="#FD312E"/>
<path d="M66.7635 61.7078L64.669 61.2275C62.0676 60.6405 60.6268 59.5199 60.6268 57.132C60.6268 54.744 63.1215 53.2231 66.1098 53.2231C69.0981 53.2231 71.446 54.6906 71.8196 57.5055H68.3644C68.2043 56.4649 67.5639 56.1447 66.1098 56.1447C64.7224 56.1447 64.0953 56.5183 64.0953 57.132C64.0953 57.7456 64.3622 58.0124 65.5628 58.3059L67.764 58.8396C70.3921 59.4799 71.8863 60.4538 71.8863 62.9351C71.8863 65.6966 69.2315 67.0574 66.1498 67.0574C63.3616 67.0574 60.6668 65.7233 60.2266 62.4816H63.6818C63.9219 63.8423 64.6156 64.1358 66.1498 64.1358C67.684 64.1358 68.4311 63.8156 68.4311 63.0152C68.4311 62.2147 67.8708 61.9479 66.7768 61.7078H66.7635Z" fill="#FD312E"/>
</svg>
