<svg xmlns="http://www.w3.org/2000/svg" viewBox="0 0 95 96" fill="none"><circle cx="47.375" cy="48" r="46.875" stroke="#FD312E"/><path fill="#FD312E" d="M68.266 42.84c-1.056-2.382-2.429-4.823-3.846-7.083l8.19-8.196a.926.926 0 0 0 0-1.303.924.924 0 0 0-1.304 0l-7.904 7.91c-3.008-4.575-5.912-8.102-6.104-8.331a1.78 1.78 0 0 0-1.875-.57l-26.577 7.856c-.58.17-1.034.628-1.2 1.212h-.004a1.805 1.805 0 0 0-.213.853v30.794c0 .687.394 1.315 1.018 1.606l1.055.503-5.365 5.37a.923.923 0 1 0 1.306 1.307l5.834-5.839 13.762 6.526a1.75 1.75 0 0 0 1.184.118 1.775 1.775 0 0 0 1.178-.114l24.577-11.53a1.771 1.771 0 0 0 1.015-1.766c-.037-.44-.982-10.865-4.727-19.323Zm-12.98-13.82a104.377 104.377 0 0 1 5.54 7.723l-16.714 16.73a34.822 34.822 0 0 0-1.074-2.526c-2.94-6.212-7.768-12.155-10.458-15.216l22.707-6.71Zm-24.3 35.836V39.343c2.635 3.132 6.454 8.103 8.835 13.13a36.957 36.957 0 0 1 1.513 3.777l-9.16 9.167-1.188-.561Zm2.96 1.403 8.019-8.025c1.465 4.938 2.28 10.141 2.664 13.088L33.946 66.26ZM48.2 71.153c-.42-3.358-1.42-9.861-3.398-15.76l17.03-17.047c1.189 1.935 2.314 3.974 3.181 5.938 2.783 6.282 3.938 14.009 4.3 16.963L48.2 71.153ZM23.78 66.584A1.78 1.78 0 0 1 22 64.804V30.84c0-.79.524-1.488 1.284-1.71l29.032-8.435c.945-.274 1.93.27 2.203 1.215a1.779 1.779 0 0 1-1.214 2.205l-27.747 8.062v32.626a1.78 1.78 0 0 1-1.78 1.78Z"/></svg>