<svg width="17" height="16" viewBox="0 0 17 16" fill="none" xmlns="http://www.w3.org/2000/svg">
<path fill-rule="evenodd" clip-rule="evenodd" d="M5.72725 12.7998C4.84725 12.7998 4.13525 13.5198 4.13525 14.3998C4.13525 15.2798 4.84725 15.9998 5.72725 15.9998C6.60725 15.9998 7.32725 15.2798 7.32725 14.3998C7.32725 13.5198 6.60725 12.7998 5.72725 12.7998ZM0.927246 0V1.6H2.52725L5.40725 7.672L4.32725 9.632C4.19925 9.856 4.12725 10.12 4.12725 10.4C4.12725 11.28 4.84725 12 5.72725 12H15.3272V10.4H6.06325C5.95125 10.4 5.86325 10.312 5.86325 10.2L5.88725 10.104L6.60725 8.8H12.5672C13.1672 8.8 13.6952 8.472 13.9672 7.976L16.8312 2.784C16.8952 2.672 16.9272 2.536 16.9272 2.4C16.9272 1.96 16.5672 1.6 16.1272 1.6H4.29525L3.54325 0H0.927246ZM13.7273 12.7998C12.8473 12.7998 12.1353 13.5198 12.1353 14.3998C12.1353 15.2798 12.8473 15.9998 13.7273 15.9998C14.6073 15.9998 15.3273 15.2798 15.3273 14.3998C15.3273 13.5198 14.6073 12.7998 13.7273 12.7998Z" fill="black"/>
</svg>
