<svg xmlns="http://www.w3.org/2000/svg" width="240" height="20" fill="none"><path fill="#fff" d="M9.583 19.61H4.74L0 .045h3.47l3.789 16.343L11.507.045h3.411l4.248 16.343L22.956.045h3.48L21.685 19.62h-4.843l-3.63-14.437L9.584 19.62v-.011Zm21.364 0c-3.045 0-4.682-1.929-4.682-4.315 0-2.385 1.648-4.325 4.682-4.325h5.427v-.937c0-1.304-.652-1.995-2.049-1.995h-6.95l1.397-2.743h5.553c3.503 0 5.335 1.695 5.335 4.738v9.577h-8.713Zm.275-6.01c-1.088 0-1.58.792-1.58 1.662 0 .87.527 1.628 1.557 1.628h5.175V13.6h-5.152Zm10.35 6.01 1.431-2.687h5.931c.996 0 1.557-.457 1.557-1.327 0-.58-.366-1.025-1.122-1.204l-4.465-1.181c-2.084-.547-3.194-1.962-3.194-3.835 0-2.386 1.58-4.08 4.224-4.08h6.95l-1.362 2.63h-5.084c-.893 0-1.43.424-1.43 1.305 0 .635.365 1.081 1.087 1.27l4.717 1.238c1.706.457 2.942 1.84 2.942 3.78 0 2.474-1.614 4.113-4.408 4.113h-7.75l-.024-.022Zm23.94 0v-9.064c0-1.66-.652-2.419-2.392-2.419h-3.973V19.61h-3.355V.045h3.355v5.262h4.465c3.412 0 5.244 1.783 5.244 5.039v9.275h-3.355l.012-.011ZM80.65.045h6.514l-1.545 2.987h-4.282c-4.282 0-6.515 2.475-6.515 6.8 0 4.326 2.233 6.801 6.515 6.801h5.827l-1.545 2.988h-4.97c-5.209-.056-9.4-3.534-9.4-9.788 0-6.254 4.191-9.733 9.4-9.788Zm14.792 4.86c4.866 0 7.637 3.077 7.637 7.548 0 4.47-2.759 7.547-7.637 7.547-4.877 0-7.636-3.077-7.636-7.547s2.759-7.548 7.636-7.548Zm0 12.23c2.828 0 4.282-1.784 4.282-4.682 0-2.899-1.454-4.65-4.282-4.65-2.828 0-4.282 1.751-4.282 4.65 0 2.898 1.454 4.682 4.282 4.682Zm24.96 2.475v-9.487c0-1.271-.596-2.03-1.889-2.03h-2.508V19.6h-3.286V8.105h-4.225V19.61h-3.354V5.295h13.808c2.919 0 4.774 1.84 4.774 4.738v9.577h-3.32Zm6.228 0V.045h3.355v5.262h2.851c4.03 0 7.133 2.564 7.133 7.157s-3.103 7.157-7.133 7.157h-6.206v-.011Zm3.355-2.776h2.45c2.702 0 4.122-1.75 4.122-4.381 0-2.631-1.363-4.382-4.122-4.382h-2.45v8.763Zm18.857-11.929c4.866 0 7.636 3.077 7.636 7.548 0 4.47-2.759 7.547-7.636 7.547-4.878 0-7.637-3.077-7.637-7.547s2.759-7.548 7.637-7.548Zm0 12.23c2.828 0 4.282-1.784 4.282-4.682 0-2.899-1.454-4.65-4.282-4.65-2.828 0-4.282 1.751-4.282 4.65 0 2.898 1.454 4.682 4.282 4.682Zm24.856 2.486-1.133-3.244h-4.924l-1.133 3.244h-2.049l4.373-11.773h2.656l4.317 11.773h-2.107Zm-3.664-10.29-1.866 5.54h3.87l-1.855-5.54h-.149Zm9.595 10.346s-.08.022-.183.022a.134.134 0 0 1-.092.033h-.275c-.423 0-.778-.055-1.064-.156a1.58 1.58 0 0 1-.687-.468 1.755 1.755 0 0 1-.367-.758 4.688 4.688 0 0 1-.114-1.037V7.47l1.866-.223v10c0 .246.011.446.046.591a.763.763 0 0 0 .16.335.594.594 0 0 0 .286.156c.115.022.264.044.424.044v1.305Zm4.007 0s-.08.022-.183.022a.132.132 0 0 1-.092.033h-.274c-.424 0-.779-.055-1.065-.156a1.592 1.592 0 0 1-.687-.468 1.755 1.755 0 0 1-.367-.758 4.688 4.688 0 0 1-.114-1.037V7.47l1.866-.223v10c0 .246.012.446.046.591a.775.775 0 0 0 .16.335.593.593 0 0 0 .287.156c.114.022.263.044.423.044v1.305Zm6.057-4.76h-4.752v-1.54h4.752v1.54Zm2.049-6.935h1.901v1.639h-1.901V7.982Zm.012 3.456h1.866v8.183h-1.866v-8.183Zm5.438 0 .069.647c.16-.112.32-.2.492-.29.172-.09.355-.167.561-.223.641-.212 1.248-.323 1.798-.323.549 0 1.007.066 1.362.2.355.134.641.335.847.58.206.256.344.569.424.936.08.368.115.803.115 1.271v5.374h-1.867v-4.983c0-.28-.023-.547-.046-.78a1.858 1.858 0 0 0-.194-.614.94.94 0 0 0-.435-.401c-.195-.1-.435-.145-.756-.145-.355 0-.675.044-.973.133-.298.09-.55.212-.779.368l-.332.212v6.221h-1.866v-6.009l-.149-2.174h1.729Zm12.388 3.478h-4.751v-1.538h4.751v1.538Zm1.798-1.237c0-2.051.446-3.556 1.339-4.537.893-.981 2.279-1.472 4.156-1.472.939 0 1.741.145 2.393.424.653.278 1.18.69 1.58 1.215.401.535.687 1.17.87 1.929.184.758.264 1.605.264 2.552 0 2.052-.447 3.568-1.34 4.549-.893.981-2.29 1.472-4.179 1.472-.961 0-1.751-.145-2.404-.424a3.72 3.72 0 0 1-1.557-1.215c-.401-.535-.676-1.17-.847-1.929a11.633 11.633 0 0 1-.264-2.564h-.011Zm8.587-.123c0-.613-.046-1.193-.138-1.728a4.408 4.408 0 0 0-.481-1.415 2.569 2.569 0 0 0-.95-.96c-.401-.233-.904-.345-1.523-.345-.664 0-1.225.1-1.671.312-.447.201-.813.513-1.088.903-.275.402-.469.892-.595 1.494s-.183 1.271-.183 2.04c0 .614.045 1.193.137 1.74.092.546.263 1.014.492 1.404.229.401.55.714.939.948.389.234.882.345 1.489.345.687 0 1.259-.1 1.728-.312a2.62 2.62 0 0 0 1.1-.903c.274-.401.458-.892.572-1.483.114-.59.172-1.27.172-2.05v.01Zm5.301-2.118.068.647a4.4 4.4 0 0 1 .493-.29c.172-.09.355-.167.561-.223.641-.212 1.248-.323 1.797-.323.55 0 1.008.066 1.363.2s.641.335.847.58c.206.256.344.569.424.936.08.368.114.803.114 1.271v5.374h-1.866v-4.983c0-.28-.023-.547-.046-.78a1.858 1.858 0 0 0-.194-.614.943.943 0 0 0-.436-.401c-.194-.1-.435-.145-.755-.145-.355 0-.676.044-.973.133-.298.09-.55.212-.779.368l-.332.212v6.221h-1.866v-6.009l-.149-2.174h1.729Zm11.22 8.384c-.767 0-1.408-.09-1.923-.268-.516-.178-.939-.446-1.248-.814-.321-.356-.539-.814-.676-1.36-.137-.546-.195-1.17-.195-1.895 0-2.82 1.34-4.236 4.008-4.236.721 0 1.316.1 1.774.3.458.201.825.48 1.088.837.263.357.447.78.538 1.27.092.491.149 1.026.149 1.595v.736h-5.622c.023.825.172 1.415.47 1.783.378.469 1.019.703 1.935.703.629 0 1.156-.078 1.58-.223.423-.145.79-.301 1.11-.435l.401 1.17c-.16.1-.355.201-.595.302-.241.1-.516.189-.813.278a7.675 7.675 0 0 1-1.958.257h-.023Zm1.546-5.095c0-.78-.138-1.35-.401-1.695-.263-.356-.676-.524-1.237-.524-.618 0-1.076.134-1.373.413-.298.279-.481.702-.573 1.27l-.069.536h3.653ZM155.264 0v.502h1.236v3.444h.641V.502h1.237V0h-3.114Zm6.629 0-.916 3.456h-.057L159.981 0h-1.168v3.958h.641V.49h.058l.984 3.455h.859l.962-3.455h.057v3.455h.63V0h-1.122.011Z"/></svg>